<svg viewBox="0 0 640 400" data-background-color="#FFFFFF" preserveAspectRatio="xMidYMid meet" height="400" width="640" xmlns="http://www.w3.org/2000/svg" xmlns:xlink="http://www.w3.org/1999/xlink"><rect width="640" height="400" x="0" y="0" opacity="1" fill="#FFFFFF" data-fill-palette-color="background" id="background"></rect><g id="tight-bounds" transform="matrix(1,0,0,1,160,20)"><svg viewBox="0 0 320 360" height="360" width="320"><g><svg></svg></g><g><svg viewBox="0 0 320 360" height="360" width="320"><g><path xmlns="http://www.w3.org/2000/svg" d="M165.217 303.356c-1.404-1.755-2.809-0.702-2.808-1.755-8.426 2.106-24.223-3.511-30.894-2.809 1.404-2.106-2.106-1.755-2.106-3.159-1.404 2.106-2.809 0-4.915 0.702-2.106-5.266-10.532-1.404-11.585-8.075-4.915 0-6.67-2.809-11.586-5.617 0.351-0.351 0.702-0.351 1.054-0.702-2.457-0.351-2.457-1.755-4.564-1.755l0.702-1.405c-3.862-0.702-5.266-6.67-10.883-8.776-1.755-0.351-5.617-6.319-7.723-7.724-1.053-0.702-2.809-0.702-0.352-1.053-0.351-0.351-0.351-1.053 0-1.404-2.457-0.702-2.809-2.809-5.968-3.862-0.351-1.053 0.702-1.755 0-2.457-0.702-0.351-1.755 0.351-2.457 0-0.351 6.319 6.67 7.021 8.777 12.287-0.702-0.702-1.755-2.809-2.458-1.404-0.351 1.053 2.809 4.915 2.809 2.808-1.053 0.702-1.404-1.053-0.703-1.404 1.053 1.755 3.16 1.404 3.16 2.809-1.053 1.053-2.457-1.053-2.106 0.702 3.16 1.755 2.809 3.511 4.563 5.968-1.404-1.755-1.755 1.404-3.159 0-0.351-5.266-6.319-4.213-6.319-9.479-0.702-1.755-1.404-0.351-2.458-1.053 1.404-1.404-4.213-6.319-4.213-4.564-1.755-2.106-0.702-2.809-1.053-4.213-1.404-0.351-0.351 1.404-1.404 0.351 1.404-2.457-1.755-5.617-3.862-8.074l1.405-0.702c-2.457-1.404-2.809-4.213-4.564-7.373-2.106 3.16 4.213 10.181 3.159 11.585 0 0.351 2.457 3.16 3.16 4.564 2.809 4.915 4.915 10.883 8.777 13.692-0.702-0.351-0.351-2.457 0.702-1.404 0 1.053-0.702 2.106-0.702 3.159 2.106 2.106 3.862 3.862 5.968 5.968-4.564-2.809-9.128-5.617-12.288-9.83 1.755-0.351 3.511 2.809 4.915 2.458-3.511-2.809-2.457-3.862-3.861-7.372-1.404-1.053 0.351 1.404-1.054 1.755-4.564-4.213-8.075-6.67-10.181-10.532 0.351-0.351 0.702-0.702 0.703-1.404-0.351-0.351-0.351-0.351-0.703-0.702 2.106 2.106 2.809 3.862 5.266 4.212-1.053-1.053 0-1.404-1.404-2.457-0.702-1.404-1.755 0.702-2.457-0.351 0.702-1.053 0-2.457 0-3.511-0.702 0-1.404 0-1.756-1.053-0.702-0.351-1.053 0-1.404 0.702-0.351-0.351-0.351-1.053-0.702-1.404v-0.351c-0.351-0.351-0.702-1.053-1.053-1.405-2.809-7.372-4.564-17.202-8.426-23.521 1.053-4.213-0.702-12.638-1.755-14.745 1.053-1.755 0.351-9.83-0.351-11.234-1.755 0.702 0.351 4.564-1.404 5.617-1.755-7.723 1.053-16.5 0.351-23.521 0.702 0 1.404 0 1.404-0.351-1.053-1.053 0.702-3.16 0.351-5.617 1.404-3.16-3.16 4.564-3.16 7.723-0.351 0.702-1.755 0-1.404 1.756 0 2.457 0.702 7.372-0.702 10.883-0.702 0-0.702-0.702-1.404-0.351-0.351 1.755-0.702 3.862-1.053 5.617-0.351-0.702-0.702-1.755-0.703-2.107-1.755-8.777 0-18.958-0.702-26.33 1.404 0 1.404-2.106 2.458-2.808-0.351 2.809-1.053 6.319 0.702 7.021 1.404-13.692 4.213-28.787 10.532-43.532 4.564-10.883 11.234-21.766 19.308-30.543 0.702 1.053-0.351 3.511 0 4.564 7.021-7.372 11.585-16.149 19.309-21.064 0.351 1.755-3.16 3.16-3.16 4.564 3.16-3.16 4.213-2.106 7.724-3.159 1.053-1.404-1.404 0-1.756-1.405 2.106-1.404 3.511-3.16 4.915-4.212 0 0.351-0.351 0.351-0.351 0.702 3.862-1.053 4.213-3.16 7.022-3.862-0.351-0.351-1.053-0.702-2.107-0.351 0.702-0.351 1.755-1.053 2.809-1.404-0.351 0-0.351 0.351-0.702 0.351 2.106-1.053 0.351 0.351 0.351 1.053 0.351 0 0.702-0.351 0.702-0.351-2.106 1.404-3.511 2.106-4.213 4.564 1.053-0.702 1.404 0 2.809-1.054 1.404-0.702-0.351-1.755 0.702-2.457 1.053 0.702 2.457 0.351 3.51 0.351 0-0.702 0.351-1.404 1.054-1.755 0.351-0.702 0-1.053-0.352-1.053 0.351-0.351 0.702-0.351 1.405-0.703 0 0 0.351 0 0.351 0.351 5.968-2.809 12.638-5.266 18.957-7.372 3.862-0.351 8.777-0.351 10.883-2.808-0.702 0-1.404 0.351-1.755 0 0.351 0 1.053-0.351 1.404-0.351 0.702 0.702 1.755 0 0.702 1.404 0.351 0 0.351 0 0.703-0.351 0 0.351 0 0.351 0.351 0.702 0.351 0 0.702-0.351 1.053-1.053 0.351 0 0.702 0 1.053-0.351l-0.351 0.351c2.809-0.702 5.266-0.351 9.128-1.054 0-0.351 0-0.702 0-1.053 0.702 0 1.053-0.351 1.755-0.351v0.351c1.404-0.702 2.809 0.702 2.808 0 0.351 0 0.351 0 0.703 0 0 0.702-0.351 1.053-0.351 1.405 1.755 0 2.809 0 3.51-1.054-0.351-0.351-0.702-0.351-1.053-0.351 0.702 0 1.404-0.351 2.106-0.702 1.053 0.351 1.404 0.702 1.405 2.107 1.755-3.16 7.372 0.702 9.829 0 1.053 0 0.702-1.404 1.405-2.107 0.351 0 0.702 0 1.053 0 1.755 1.404 4.213 2.809 7.372 3.16-2.809-0.702 0.351-1.053 0.702-1.405-0.702 0-0.702-0.351-0.702-0.702 1.053 0 2.106 0.351 3.16 0.351 0 0.702 0.351 1.053 1.053 1.054 0.702 0 0.702-0.351 0.702-1.054 1.053 0 1.755 0 2.809 0.351-0.351 1.404 1.755 1.755 2.457 2.809-2.809-0.702-5.968-1.755-7.021 0 11.234 2.457 23.521 5.968 35.457 11.936 0 0 0 0 0 0.351h0.352c2.106 1.053 4.213 2.106 6.319 3.16 1.404 0.702 2.457 1.404 3.861 2.457 0 0.351 0 0.702 0.703 0.702h0.351c1.404 1.053 2.809 1.755 4.212 2.809 1.404 2.106 2.809 4.915 5.266 4.213 5.266 8.075 10.883 11.234 15.447 19.659 0.351-1.404 1.404 3.16 3.16 3.511-2.809-0.351 1.755 1.755-1.053 1.404 2.457 2.457 3.16 3.511 3.51 6.319-0.702-1.404-1.053-1.755-1.404-0.351-0.351 2.106 2.457-0.351 3.511 1.756-2.106 0-1.404 1.404-1.054 3.159 1.053-1.053 0.702-2.106 1.756-1.755 1.404 1.404-0.702 1.755-0.351 2.809 1.053-1.404 1.404-0.702 2.808 0-1.755 0.351 1.053 2.809-1.053 1.755 1.404 1.755 1.755 2.809 1.053 4.564-1.404-2.106-0.351-3.511-2.457-3.16 4.213 3.511 2.106 11.585 7.021 12.287-3.16 0.702 0 2.106-1.755 2.458 2.106 0.702 1.053 3.511 3.51 4.213-0.351 1.755-1.053 2.809-1.404 4.563 1.053 1.404 1.404 4.213 3.16 4.564-1.053 1.053-0.351 3.862-1.404 4.915 1.404-0.702 2.106-0.702 3.159 0.702-1.755 1.404-0.351 2.809-1.404 3.16 3.16 8.075-0.702 24.575 1.053 30.894-2.106-1.053-1.404 2.457-2.808 2.457 2.457 1.053 0.351 2.809 1.404 4.564-4.915 2.809 0 10.532-6.67 12.287 0.702 4.915-2.106 7.021-4.213 12.288-0.351-0.351-0.351-0.702-0.702-1.054-0.351 2.457-1.755 2.809-1.054 4.915l-1.404-0.702c0 3.862-5.968 5.968-7.372 11.936-0.351 1.755-5.617 6.319-7.022 8.777-0.702 1.053-0.351 2.809-1.053 0.351-0.351 0.351-1.053 0.351-1.404 0.351-0.351 2.457-2.457 3.16-3.16 6.319-0.702 0.351-1.755-0.702-2.457 0.351 0 0.702 0.702 1.755 0.351 2.458 6.319-0.351 6.319-7.723 11.234-10.181-0.351 1.053-2.457 2.106-1.053 2.808 1.053 0 4.213-3.511 2.457-3.159 1.053 0.702-1.053 1.404-1.404 1.053 1.755-1.404 1.053-3.16 2.458-3.511 1.053 0.702-1.053 2.457 1.053 2.107 1.404-3.16 3.16-3.511 5.266-5.266-1.404 1.404 1.755 1.755 0.351 3.159-5.266 1.053-3.511 7.021-8.777 7.724-1.404 1.053-0.351 1.404-0.702 2.457-1.755-1.053-5.617 4.915-4.213 4.564-1.755 1.755-2.809 1.053-4.212 1.404-0.351 1.404 1.404 0.351 0.702 1.405-2.457-1.053-5.617 2.457-7.724 4.915l-1.053-1.054c-1.053 2.809-3.862 3.16-7.021 5.266 3.511 1.755 9.479-5.617 11.234-4.564 0.351 0 3.16-2.809 4.213-3.861 4.564-3.511 10.181-6.319 12.287-10.181-0.351 0.702-2.457 0.702-1.404-0.351 1.053-0.351 2.106 0.351 3.159 0.351 5.617-7.723 12.638-14.043 17.905-23.17 0.351-0.351 0.702-1.053 1.053-1.756-0.702 2.106-1.755 3.862-2.458 5.968-5.617 3.862-7.723 15.096-14.393 16.851 0.351 3.862-3.16 4.915-4.915 9.479-1.053 1.404-1.755-1.053-2.809 0.702 1.053 4.915-8.777 4.564-8.425 9.128-0.702 0.351-1.755 0.702-2.458 1.404h-0.351c-0.351 0.351-0.351 0.351-0.702 0.702-1.755 1.053-3.16 2.106-4.564 3.16-4.915 2.809-11.585 4.915-16.851 7.723v-0.351c-1.404 0.702-3.16 0.351-2.809 1.756-1.053 0.702-2.106 1.404-3.159 2.106-0.351 0-0.351 0-0.702 0 0 0-0.351-0.351-0.702-0.351-0.702 0-0.702 0-1.054 0.351-4.564 0.351-10.532 2.457-12.287 3.862-1.755-1.053-9.83 0.702-11.234 1.404 0.702 1.053 2.809 0 4.564 0-1.053 0.351-2.106 0.702-2.458 1.404-0.351 0-0.351 0-0.702 0-0.351-1.053-1.404 0-1.755-0.351h0.351c-0.351-1.404-1.404-2.106-3.16-1.755 0 0.702 0 1.053-0.351 1.755 0.702 0 2.809-1.053 2.809 0-0.351 0-0.351 0.351 0 0.351-0.702 0.702-1.755 0.702-2.458 1.054-1.404 0-3.16 0-4.563 0-0.351-0.351-0.702-0.351-1.405-0.703-0.351 0.351-1.053 0.351-1.404 0.703-2.106 0-4.564 0.351-6.319 0.702 0-0.702 0-1.404-0.702-1.405-1.053 1.404-3.16-0.351-5.617 0.352-2.457-0.702 1.404 1.053 4.915 1.755-0.351 0.351-0.702 0.702-1.756 1.053M116.068 308.271c-4.915-4.564-15.096-6.67-16.851-10.181-2.809-0.351-7.021-5.617-10.532-6.319 1.755 0 0.351-1.053 0-1.755-0.702 0.702-1.404 1.053-2.106 1.053 0-2.809-2.809-4.564-5.266-6.319 1.755 1.053 3.16 1.755 5.266 2.106 0-0.702 0-1.404 0.702-1.404 2.457 2.457 5.266 4.915 8.425 7.372 4.213 3.862 25.979 13.692 29.841 15.447 0 0-0.702 1.404-0.351 1.404 1.755 1.053 3.16-1.053 3.511 1.404-5.617 0.702-7.723-3.16-12.639-2.808M277.909 226.824v0.351 0c-0.351 0 0-0.351 0-0.351M136.079 64.281c-0.351 0.351-0.702 0.351-0.702 0.351 0-0.351 0.351-0.351 0.702-0.351M129.409 66.036c0 0.351 0 0.351 0 0 0 0.351 0 0.351 0 0 0 0.351 0 0 0 0M106.238 73.408v0c0.351-0.351 0.351-0.351 0.703-0.351-0.351 0-0.702 0.351-0.703 0.351M162.409 61.823c-0.702 0-1.053 0-1.404-0.351 0.351 0 0.702 0 1.053 0h0.351c0 0 0 0 0 0.351M168.728 62.525c-0.351-0.351-1.404-0.702-2.457-0.702 0-0.351 0.351-0.702 0.351-0.702 0.351 0 0.702 0 1.053 0 0 0 0.351 0 0.351 0.351 0 0 0 0 0-0.351 0.351 0 0.351 0 0.702 0 0.351 0.702 0.702 1.053 0 1.404M180.313 63.579c-1.755 0.351-2.809-0.351-4.564-1.405 1.053 0 2.457 0.351 3.511 0.702 0.351 0 0.702 0.351 1.053 0.703M305.292 113.43c-0.702 0.351-1.053 0.351-1.755-1.053-5.617-11.936-15.798-29.138-30.543-43.532-14.394-14.745-33.702-26.681-51.255-33.001 1.053 0.351 2.457 1.053 1.755 1.756-15.447-5.968-30.192-9.479-44.234-10.883-37.915-5.968-77.585 2.106-108.128 21.766 0.351 0.702 0.351 1.053-0.702 1.755-11.234 7.021-27.032 19.309-39.671 35.458-12.638 16.149-22.468 36.511-26.681 54.766 0.351-1.053 0.702-2.809 1.405-2.107-9.128 36.16-6.67 67.053 5.968 93.735 0.702-0.702-1.755-4.213 0.351-3.862 1.404 3.862 3.16 8.075 5.266 11.936 2.457 5.617 5.266 12.989 9.128 14.745-9.83-19.309-16.5-41.426-17.203-61.085 1.404 2.809 1.053 8.777 3.16 11.234 0.702-13.34-2.457-31.245 2.106-43.883-1.053 6.67-1.755 15.798-1.053 24.925 0 6.67 3.16 25.277 5.266 27.032-0.351-0.351-0.351-2.106 0-2.106 1.053 2.106-1.404 3.16 0.351 3.511 0-0.702 0.351-0.702 0.702-0.703 3.511 7.723 8.075 19.66 11.585 25.628 4.213 7.723 9.83 14.745 16.149 21.064 0 0.351 0.351 0.351 0.352 0.702 0.702 1.755 3.16 3.862 3.861 5.266 0.351 0.702-0.351 1.755 0 2.458 5.266 9.83 12.989 19.66 22.468 27.383 5.968 7.021 15.447 14.394 27.032 20.713 11.234 5.968 24.223 10.883 36.16 13.691 8.426 2.106 18.606 2.457 24.926 3.862 8.426 1.755 23.17-0.702 30.542-2.107 44.234-6.67 88.117-36.862 110.235-80.393 22.819-43.883 22.117-97.596 2.457-138.671" fill="#000000" fill-rule="nonzero" stroke="none" stroke-width="1" stroke-linecap="butt" stroke-linejoin="miter" stroke-miterlimit="10" stroke-dasharray="" stroke-dashoffset="0" font-family="none" font-weight="none" font-size="none" text-anchor="none" style="mix-blend-mode: normal" data-fill-palette-color="tertiary"></path></g><g transform="matrix(1,0,0,1,111.80040530232263,108)"><svg viewBox="0 0 96.39918939535474 144" height="144" width="96.39918939535474"><g><svg viewBox="0 0 160.79999999999998 240.20118991909072" height="144" width="96.39918939535474"><g><rect width="160.79999999999998" height="6.0726828582415" x="0" y="123.43441845487772" fill="#000000" opacity="1" stroke-width="0" stroke="transparent" fill-opacity="1" class="rect-o-0" data-fill-palette-color="secondary" rx="1%" id="o-0" data-palette-color="#000000"></rect></g><g transform="matrix(1,0,0,1,0.3999999999999915,145.40417685825403)"><svg viewBox="0 0 160 94.79701306083669" height="94.79701306083669" width="160"><g><svg viewBox="0 0 160 94.79701306083669" height="94.79701306083669" width="160"><g><svg viewBox="0 0 160 67.33880422039859" height="67.33880422039859" width="160"><g transform="matrix(1,0,0,1,0,0)"><svg width="160" viewBox="1.75 -35.400001525878906 85.30000305175781 35.900001525878906" height="67.33880422039859" data-palette-color="#000000"><path d="M1.75 0L13.85 0 13.85-3.95 8.7-3.95 8.7-15.65 24.15-15.65 24.15-19.6 8.7-19.6 8.7-31.05 22.15-31.05 22.15-27.3 26.1-27.3 26.1-35 1.75-35 1.75-31.05 4.55-31.05 4.55-3.95 1.75-3.95 1.75 0ZM56.55-2L56.55-2 56.55-14.9 47.25-14.9 47.25-10.95 52.4-10.95 52.4-4.35Q51.25-3.9 50-3.68 48.75-3.45 47.45-3.45L47.45-3.45Q44.6-3.45 42.12-4.55 39.65-5.65 37.8-7.55L37.8-7.55Q35.9-9.4 34.82-11.95 33.75-14.5 33.75-17.35L33.75-17.35Q33.75-20.2 34.82-22.75 35.9-25.3 37.8-27.25L37.8-27.25Q39.65-29.15 42.12-30.25 44.6-31.35 47.45-31.35L47.45-31.35Q49.35-31.35 51.05-30.85 52.75-30.35 54.3-29.45L54.3-29.45 56.6-32.8Q54.55-34 52.27-34.65 50-35.3 47.45-35.3L47.45-35.3Q43.75-35.3 40.5-33.88 37.25-32.45 34.85-30.05L34.85-30.05Q32.4-27.6 31-24.33 29.6-21.05 29.6-17.35L29.6-17.35Q29.6-13.65 31-10.4 32.4-7.15 34.85-4.75L34.85-4.75Q37.25-2.3 40.5-0.9 43.75 0.5 47.45 0.5L47.45 0.5Q50 0.5 52.27-0.18 54.55-0.85 56.55-2ZM87-2.1L87-2.1 84.75-5.4Q83.2-4.5 81.47-4.03 79.75-3.55 77.9-3.55L77.9-3.55Q75.05-3.55 72.57-4.65 70.09-5.75 68.25-7.65L68.25-7.65Q66.34-9.5 65.27-12.05 64.2-14.6 64.2-17.45L64.2-17.45Q64.2-20.3 65.27-22.85 66.34-25.4 68.25-27.35L68.25-27.35Q70.09-29.25 72.57-30.35 75.05-31.45 77.9-31.45L77.9-31.45Q79.25-31.45 80.55-31.18 81.84-30.9 83.09-30.35L83.09-30.35 83.09-27.3 87.05-27.3 87.05-32.9Q85-34.1 82.72-34.75 80.45-35.4 77.9-35.4L77.9-35.4Q74.2-35.4 70.95-33.98 67.7-32.55 65.3-30.15L65.3-30.15Q62.84-27.7 61.45-24.43 60.05-21.15 60.05-17.45L60.05-17.45Q60.05-13.75 61.45-10.5 62.84-7.25 65.3-4.85L65.3-4.85Q67.7-2.4 70.95-1 74.2 0.4 77.9 0.4L77.9 0.4Q80.45 0.4 82.72-0.28 85-0.95 87-2.1Z" opacity="1" transform="matrix(1,0,0,1,0,0)" fill="#000000" class="undefined-text-0" data-fill-palette-color="primary" id="text-0"></path></svg></g></svg></g><g transform="matrix(1,0,0,1,0,83.2358797655334)"><svg viewBox="0 0 160 11.56113329530329" height="11.56113329530329" width="160"><g transform="matrix(1,0,0,1,0,0)"><svg width="160" viewBox="1.75 -37.5 525.9000244140625 38" height="11.56113329530329" data-palette-color="#000000"><path d="M1.75 0L13.85 0 13.85-3.95 8.7-3.95 8.7-15.65 24.15-15.65 24.15-19.6 8.7-19.6 8.7-31.05 22.15-31.05 22.15-27.3 26.1-27.3 26.1-35 1.75-35 1.75-31.05 4.55-31.05 4.55-3.95 1.75-3.95 1.75 0ZM46 0L53.45 0 53.45-3.95 49.65-3.95 49.65-18.75 46.2-18.75Q46.2-18.15 46.13-17.53 46.05-16.9 46-16.4L46-16.4Q45.6-17.25 44-18.23 42.4-19.2 39.65-19.2L39.65-19.2Q37.55-19.2 35.7-18.4 33.85-17.6 32.5-16.25L32.5-16.25Q31.15-14.9 30.38-13.1 29.6-11.3 29.6-9.35L29.6-9.35Q29.6-7.35 30.38-5.58 31.15-3.8 32.5-2.45L32.5-2.45Q33.85-1.1 35.7-0.33 37.55 0.45 39.65 0.45L39.65 0.45Q41.1 0.45 42.25 0.13 43.4-0.2 44.25-0.65L44.25-0.65Q45.05-1.05 45.5-1.45 45.95-1.85 46-2L46-2Q46-1.65 46-1.5 46-1.35 46-1L46-1 46 0ZM39.65-15.15L39.65-15.15Q40.9-15.15 41.93-14.75 42.95-14.35 43.75-13.65L43.75-13.65Q44.55-12.9 45.03-11.8 45.5-10.7 45.5-9.4L45.5-9.4Q45.5-8.1 45.03-7 44.55-5.9 43.7-5.1L43.7-5.1Q42.95-4.4 41.93-4 40.9-3.6 39.65-3.6L39.65-3.6Q38.55-3.6 37.6-3.93 36.65-4.25 35.95-4.8L35.95-4.8Q34.95-5.6 34.38-6.8 33.8-8 33.8-9.4L33.8-9.4Q33.8-10.6 34.18-11.6 34.55-12.6 35.25-13.35L35.25-13.35Q36-14.2 37.15-14.68 38.3-15.15 39.65-15.15ZM61.15 0L69.05 0 69.05-3.95 65.3-3.95 65.3-14.7 70.2-14.7 70.2-18.75 65.3-18.75 65.3-30.95 61.15-30.95 61.15-18.75 56.95-18.75 56.95-14.7 61.15-14.7 61.15 0ZM73.7 0L84.8 0 84.8-3.95 81.35-3.95 81.35-18.75 73.7-18.75 73.7-14.8 77.2-14.8 77.2-3.95 73.7-3.95 73.7 0ZM81.9-26L81.9-26Q81.9-27.15 81.1-27.9 80.3-28.65 79.35-28.65L79.35-28.65Q78.35-28.65 77.55-27.9 76.75-27.15 76.75-26L76.75-26Q76.75-24.85 77.55-24.13 78.35-23.4 79.35-23.4L79.35-23.4Q80.3-23.4 81.1-24.13 81.9-24.85 81.9-26ZM88.3 0L99.4 0 99.4-3.95 96.25-3.95 96.25-9.1Q96.25-10.4 96.8-11.5 97.35-12.6 98.25-13.4L98.25-13.4Q99.15-14.2 100.33-14.65 101.5-15.1 102.8-15.1L102.8-15.1Q104.7-15 105.58-14.03 106.45-13.05 106.55-11.7L106.55-11.7 106.55-3.95 102.75-3.95 102.75 0 113.85 0 113.85-3.95 110.7-3.95 110.7-9.1Q110.7-10.4 111.25-11.5 111.8-12.6 112.7-13.4L112.7-13.4Q113.6-14.2 114.78-14.65 115.95-15.1 117.25-15.1L117.25-15.1Q119.15-15 120.03-14.03 120.9-13.05 121-11.7L121-11.7 121-3.95 117.2-3.95 117.2 0 128.3 0 128.3-3.95 125.15-3.95 125.15-13.6Q125.05-16.1 123.35-17.65 121.65-19.2 118.7-19.2L118.7-19.2Q115.95-19.1 113.85-17.8 111.75-16.5 110.65-14.2L110.65-14.2Q110.35-16.45 108.68-17.82 107-19.2 104.25-19.2L104.25-19.2Q101.4-19.1 99.28-17.73 97.15-16.35 96.1-13.95L96.1-13.95Q96-15.15 95.93-16.13 95.85-17.1 95.75-18.3L95.75-18.3 95.75-18.75 88.8-18.75 88.8-14.8 92.1-14.8 92.1-3.95 88.3-3.95 88.3 0ZM148.2 0L155.65 0 155.65-3.95 151.85-3.95 151.85-18.75 148.4-18.75Q148.4-18.15 148.33-17.53 148.25-16.9 148.2-16.4L148.2-16.4Q147.8-17.25 146.2-18.23 144.6-19.2 141.85-19.2L141.85-19.2Q139.75-19.2 137.9-18.4 136.05-17.6 134.7-16.25L134.7-16.25Q133.35-14.9 132.58-13.1 131.8-11.3 131.8-9.35L131.8-9.35Q131.8-7.35 132.58-5.58 133.35-3.8 134.7-2.45L134.7-2.45Q136.05-1.1 137.9-0.33 139.75 0.45 141.85 0.45L141.85 0.45Q143.3 0.45 144.45 0.13 145.6-0.2 146.45-0.65L146.45-0.65Q147.25-1.05 147.7-1.45 148.15-1.85 148.2-2L148.2-2Q148.2-1.65 148.2-1.5 148.2-1.35 148.2-1L148.2-1 148.2 0ZM141.85-15.15L141.85-15.15Q143.1-15.15 144.13-14.75 145.15-14.35 145.95-13.65L145.95-13.65Q146.75-12.9 147.23-11.8 147.7-10.7 147.7-9.4L147.7-9.4Q147.7-8.1 147.23-7 146.75-5.9 145.9-5.1L145.9-5.1Q145.15-4.4 144.13-4 143.1-3.6 141.85-3.6L141.85-3.6Q140.75-3.6 139.8-3.93 138.85-4.25 138.15-4.8L138.15-4.8Q137.15-5.6 136.58-6.8 136-8 136-9.4L136-9.4Q136-10.6 136.38-11.6 136.75-12.6 137.45-13.35L137.45-13.35Q138.2-14.2 139.35-14.68 140.5-15.15 141.85-15.15ZM159.5-23.6L163.5-23.6Q163.55-26.75 163.6-29.8 163.65-32.85 163.7-36L163.7-36 159.5-36 159.5-23.6ZM179.35-1.85L179.35-1.85Q180.05-2.8 180.33-3.8 180.6-4.8 180.6-5.5L180.6-5.5Q180.6-7.05 180.05-8.08 179.5-9.1 178.65-9.8L178.65-9.8Q177.8-10.45 176.8-10.9 175.8-11.35 174.95-11.7L174.95-11.7Q174.05-12.05 173.4-12.43 172.75-12.8 172.65-13.4L172.65-13.4Q172.6-13.8 172.7-14.13 172.8-14.45 173.05-14.7L173.05-14.7Q173.3-14.9 173.7-15.03 174.1-15.15 174.65-15.15L174.65-15.15Q175.05-15.15 175.4-15.08 175.75-15 176.15-14.9L176.15-14.9 176.15-12.75 179.85-12.75 179.85-17.1Q179.3-17.7 178.58-18.1 177.85-18.5 177.1-18.75L177.1-18.75Q176.35-19 175.63-19.1 174.9-19.2 174.4-19.2L174.4-19.2Q173.55-19.2 172.5-18.9 171.45-18.6 170.55-17.9L170.55-17.9Q169.65-17.25 169.05-16.2 168.45-15.15 168.45-13.6L168.45-13.6Q168.45-11.85 169.05-10.8 169.65-9.75 170.55-9.2L170.55-9.2Q171.5-8.6 172.55-8.28 173.6-7.95 174.45-7.6L174.45-7.6Q175.35-7.3 175.88-6.83 176.4-6.35 176.4-5.45L176.4-5.45Q176.4-4.95 176.23-4.63 176.05-4.3 175.8-4.1L175.8-4.1Q175.45-3.85 175.03-3.75 174.6-3.65 174.2-3.65L174.2-3.65Q173.35-3.65 172.78-3.73 172.2-3.8 171.6-4.05L171.6-4.05 171.6-6 167.9-6 167.9-1.65Q168.9-0.55 170.6-0.08 172.3 0.4 174.15 0.4L174.15 0.4Q176.15 0.4 177.4-0.25 178.65-0.9 179.35-1.85ZM225.85-2L225.85-2 225.85-14.9 216.55-14.9 216.55-10.95 221.7-10.95 221.7-4.35Q220.55-3.9 219.3-3.68 218.05-3.45 216.75-3.45L216.75-3.45Q213.9-3.45 211.43-4.55 208.95-5.65 207.1-7.55L207.1-7.55Q205.2-9.4 204.13-11.95 203.05-14.5 203.05-17.35L203.05-17.35Q203.05-20.2 204.13-22.75 205.2-25.3 207.1-27.25L207.1-27.25Q208.95-29.15 211.43-30.25 213.9-31.35 216.75-31.35L216.75-31.35Q218.65-31.35 220.35-30.85 222.05-30.35 223.6-29.45L223.6-29.45 225.9-32.8Q223.85-34 221.58-34.65 219.3-35.3 216.75-35.3L216.75-35.3Q213.05-35.3 209.8-33.88 206.55-32.45 204.15-30.05L204.15-30.05Q201.7-27.6 200.3-24.33 198.9-21.05 198.9-17.35L198.9-17.35Q198.9-13.65 200.3-10.4 201.7-7.15 204.15-4.75L204.15-4.75Q206.55-2.3 209.8-0.9 213.05 0.5 216.75 0.5L216.75 0.5Q219.3 0.5 221.58-0.18 223.85-0.85 225.85-2ZM229.35 0L241.45 0 241.45-3.95 235.75-3.95 235.75-15.6 241.2-15.6Q246.3-15.6 249-18.28 251.7-20.95 251.7-25.5L251.7-25.5Q251.7-28.05 250.5-29.85 249.3-31.65 247.5-32.8L247.5-32.8Q245.7-33.95 243.63-34.48 241.55-35 239.85-35L239.85-35 229.35-35 229.35-31.05 231.6-31.05 231.6-3.95 229.35-3.95 229.35 0ZM235.75-19.6L235.75-31.05 240.15-31.05Q241.7-31.05 243.08-30.6 244.45-30.15 245.45-29.4L245.45-29.4Q246.4-28.6 246.98-27.6 247.55-26.6 247.55-25.5L247.55-25.5Q247.55-24.55 247.2-23.5 246.85-22.45 246-21.6L246-21.6Q245.15-20.75 243.73-20.18 242.3-19.6 240.1-19.6L240.1-19.6 235.75-19.6ZM255.2 0L266.3 0 266.3-3.95 263.45-3.95Q264.85-7.25 265.55-8.9 266.25-10.55 267.65-13.85L267.65-13.85 278.65-13.85Q279.7-11.35 280.73-8.9 281.75-6.45 282.8-3.95L282.8-3.95 280-3.95 280 0 291.1 0 291.1-3.95 287-3.95Q283.55-12.2 280.08-20.28 276.6-28.35 273.15-36.6L273.15-36.6Q269.7-28.35 266.23-20.28 262.75-12.2 259.3-3.95L259.3-3.95 255.2-3.95 255.2 0ZM272.6-25.75L272.6-25.75Q272.65-25.9 272.78-26.25 272.9-26.6 273.1-27.4L273.1-27.4 273.6-25.75 276.95-17.8 269.35-17.8Q270.05-19.55 270.88-21.68 271.7-23.8 272.6-25.75ZM336.55-2.1L336.55-2.1 334.3-5.4Q332.75-4.5 331.03-4.03 329.3-3.55 327.45-3.55L327.45-3.55Q324.6-3.55 322.13-4.65 319.65-5.75 317.8-7.65L317.8-7.65Q315.9-9.5 314.83-12.05 313.75-14.6 313.75-17.45L313.75-17.45Q313.75-20.3 314.83-22.85 315.9-25.4 317.8-27.35L317.8-27.35Q319.65-29.25 322.13-30.35 324.6-31.45 327.45-31.45L327.45-31.45Q328.8-31.45 330.1-31.18 331.4-30.9 332.65-30.35L332.65-30.35 332.65-27.3 336.6-27.3 336.6-32.9Q334.55-34.1 332.28-34.75 330-35.4 327.45-35.4L327.45-35.4Q323.75-35.4 320.5-33.98 317.25-32.55 314.85-30.15L314.85-30.15Q312.4-27.7 311-24.43 309.6-21.15 309.6-17.45L309.6-17.45Q309.6-13.75 311-10.5 312.4-7.25 314.85-4.85L314.85-4.85Q317.25-2.4 320.5-1 323.75 0.4 327.45 0.4L327.45 0.4Q330 0.4 332.28-0.28 334.55-0.95 336.55-2.1ZM356.5 0L363.95 0 363.95-3.95 360.15-3.95 360.15-18.75 356.7-18.75Q356.7-18.15 356.63-17.53 356.55-16.9 356.5-16.4L356.5-16.4Q356.1-17.25 354.5-18.23 352.9-19.2 350.15-19.2L350.15-19.2Q348.05-19.2 346.2-18.4 344.35-17.6 343-16.25L343-16.25Q341.65-14.9 340.88-13.1 340.1-11.3 340.1-9.35L340.1-9.35Q340.1-7.35 340.88-5.58 341.65-3.8 343-2.45L343-2.45Q344.35-1.1 346.2-0.33 348.05 0.45 350.15 0.45L350.15 0.45Q351.6 0.45 352.75 0.13 353.9-0.2 354.75-0.65L354.75-0.65Q355.55-1.05 356-1.45 356.45-1.85 356.5-2L356.5-2Q356.5-1.65 356.5-1.5 356.5-1.35 356.5-1L356.5-1 356.5 0ZM350.15-15.15L350.15-15.15Q351.4-15.15 352.43-14.75 353.45-14.35 354.25-13.65L354.25-13.65Q355.05-12.9 355.53-11.8 356-10.7 356-9.4L356-9.4Q356-8.1 355.53-7 355.05-5.9 354.2-5.1L354.2-5.1Q353.45-4.4 352.43-4 351.4-3.6 350.15-3.6L350.15-3.6Q349.05-3.6 348.1-3.93 347.15-4.25 346.45-4.8L346.45-4.8Q345.45-5.6 344.88-6.8 344.3-8 344.3-9.4L344.3-9.4Q344.3-10.6 344.68-11.6 345.05-12.6 345.75-13.35L345.75-13.35Q346.5-14.2 347.65-14.68 348.8-15.15 350.15-15.15ZM367.45 0L378.55 0 378.55-3.95 375.4-3.95 375.4-37.5 367.95-37.5 367.95-33.55 371.25-33.55 371.25-3.95 367.45-3.95 367.45 0ZM398.3-1.7L398.3-1.7 395.8-4.85Q395-4.2 394.08-3.9 393.15-3.6 392.05-3.6L392.05-3.6Q390.8-3.6 389.75-4.03 388.7-4.45 387.9-5.15L387.9-5.15Q387.1-5.95 386.65-7.05 386.2-8.15 386.2-9.4L386.2-9.4Q386.2-10.75 386.68-11.85 387.15-12.95 388.05-13.75L388.05-13.75Q388.8-14.4 389.83-14.78 390.85-15.15 392.05-15.15L392.05-15.15Q392.75-15.15 393.43-15.03 394.1-14.9 394.7-14.6L394.7-14.6 394.7-11.25 398.4-11.25 398.4-17.05Q397.1-18.05 395.5-18.63 393.9-19.2 392.05-19.2L392.05-19.2Q389.95-19.2 388.13-18.43 386.3-17.65 384.95-16.3L384.95-16.3Q383.6-15 382.83-13.2 382.05-11.4 382.05-9.4L382.05-9.4Q382.05-7.35 382.83-5.58 383.6-3.8 384.95-2.45L384.95-2.45Q386.3-1.1 388.13-0.33 389.95 0.45 392.05 0.45L392.05 0.45Q393.85 0.45 395.43-0.13 397-0.7 398.3-1.7ZM419.8-4.8L419.8-4.8 419.65-2.55 419.65 0 426.9 0 426.9-3.5 423.8-3.5 423.8-18.75 416.35-18.75 416.35-14.8 419.65-14.8 419.65-9.65Q419.65-8.35 419.1-7.25 418.55-6.15 417.65-5.35L417.65-5.35Q416.75-4.55 415.58-4.1 414.4-3.65 413.1-3.65L413.1-3.65Q411.2-3.75 410.33-4.73 409.45-5.7 409.35-7.05L409.35-7.05 409.35-18.75 401.9-18.75 401.9-14.8 405.2-14.8 405.2-5.15Q405.3-2.65 407-1.1 408.7 0.45 411.65 0.45L411.65 0.45Q414.35 0.45 416.58-0.98 418.8-2.4 419.8-4.8ZM430.4 0L441.5 0 441.5-3.95 438.35-3.95 438.35-37.5 430.9-37.5 430.9-33.55 434.2-33.55 434.2-3.95 430.4-3.95 430.4 0ZM461.4 0L468.85 0 468.85-3.95 465.05-3.95 465.05-18.75 461.6-18.75Q461.6-18.15 461.53-17.53 461.45-16.9 461.4-16.4L461.4-16.4Q461-17.25 459.4-18.23 457.8-19.2 455.05-19.2L455.05-19.2Q452.95-19.2 451.1-18.4 449.25-17.6 447.9-16.25L447.9-16.25Q446.55-14.9 445.78-13.1 445-11.3 445-9.35L445-9.35Q445-7.35 445.78-5.58 446.55-3.8 447.9-2.45L447.9-2.45Q449.25-1.1 451.1-0.33 452.95 0.45 455.05 0.45L455.05 0.45Q456.5 0.45 457.65 0.13 458.8-0.2 459.65-0.65L459.65-0.65Q460.45-1.05 460.9-1.45 461.35-1.85 461.4-2L461.4-2Q461.4-1.65 461.4-1.5 461.4-1.35 461.4-1L461.4-1 461.4 0ZM455.05-15.15L455.05-15.15Q456.3-15.15 457.33-14.75 458.35-14.35 459.15-13.65L459.15-13.65Q459.95-12.9 460.43-11.8 460.9-10.7 460.9-9.4L460.9-9.4Q460.9-8.1 460.43-7 459.95-5.9 459.1-5.1L459.1-5.1Q458.35-4.4 457.33-4 456.3-3.6 455.05-3.6L455.05-3.6Q453.95-3.6 453-3.93 452.05-4.25 451.35-4.8L451.35-4.8Q450.35-5.6 449.78-6.8 449.2-8 449.2-9.4L449.2-9.4Q449.2-10.6 449.58-11.6 449.95-12.6 450.65-13.35L450.65-13.35Q451.4-14.2 452.55-14.68 453.7-15.15 455.05-15.15ZM476.55 0L484.45 0 484.45-3.95 480.7-3.95 480.7-14.7 485.6-14.7 485.6-18.75 480.7-18.75 480.7-30.95 476.55-30.95 476.55-18.75 472.35-18.75 472.35-14.7 476.55-14.7 476.55 0ZM506.25-2.45L506.25-2.45Q507.6-3.8 508.38-5.58 509.15-7.35 509.15-9.4L509.15-9.4Q509.15-11.4 508.38-13.2 507.6-15 506.25-16.35L506.25-16.35Q504.9-17.65 503.05-18.43 501.2-19.2 499.1-19.2L499.1-19.2Q497-19.2 495.18-18.43 493.35-17.65 492-16.35L492-16.35Q490.65-15 489.88-13.2 489.1-11.4 489.1-9.4L489.1-9.4Q489.1-7.35 489.88-5.58 490.65-3.8 492-2.45L492-2.45Q493.35-1.1 495.18-0.33 497 0.45 499.1 0.45L499.1 0.45Q501.2 0.45 503.05-0.33 504.9-1.1 506.25-2.45ZM494.95-5.3L494.95-5.3Q494.15-6.05 493.7-7.1 493.25-8.15 493.25-9.35L493.25-9.35Q493.25-10.55 493.7-11.6 494.15-12.65 494.95-13.45L494.95-13.45Q495.7-14.25 496.75-14.7 497.8-15.15 499-15.15L499-15.15Q500.2-15.15 501.25-14.7 502.3-14.25 503.1-13.45L503.1-13.45Q503.9-12.65 504.35-11.6 504.8-10.55 504.8-9.35L504.8-9.35Q504.8-8.15 504.35-7.1 503.9-6.05 503.1-5.3L503.1-5.3Q502.3-4.5 501.25-4.05 500.2-3.6 499-3.6L499-3.6Q497.8-3.6 496.75-4.05 495.7-4.5 494.95-5.3ZM512.65 0L523.75 0 523.75-3.95 520.6-3.95 520.6-9.1Q520.6-10.65 521.28-11.9 521.95-13.15 523.15-13.95L523.15-13.95Q523.95-14.5 525.03-14.8 526.1-15.1 527.35-15.1L527.35-15.1 527.65-19.2Q526.9-19.2 525.93-18.85 524.95-18.5 523.9-17.8L523.9-17.8Q522.9-17.15 521.98-16.18 521.05-15.2 520.45-13.95L520.45-13.95Q520.35-15.15 520.38-15.05 520.4-14.95 520.3-16.15L520.3-16.15 520.1-18.75 513.15-18.75 513.15-14.8 516.45-14.8 516.45-3.95 512.65-3.95 512.65 0Z" opacity="1" transform="matrix(1,0,0,1,0,0)" fill="#000000" class="undefined-text-1" data-fill-palette-color="secondary" id="text-1"></path></svg></g></svg></g></svg></g></svg></g><g transform="matrix(1,0,0,1,30.959999999999994,0)"><svg viewBox="0 0 98.88 107.5373429097429" height="107.5373429097429" width="98.88"><g><svg xmlns="http://www.w3.org/2000/svg" xmlns:xlink="http://www.w3.org/1999/xlink" version="1.1" x="8" y="0" viewBox="19.486000061035156 10.114999771118164 61.72300720214844 80.08600616455078" enable-background="new 0 0 100 100" xml:space="preserve" height="107.5373429097429" width="82.88" class="icon-icon-0" data-fill-palette-color="accent" id="icon-0"><g fill="#000000" data-fill-palette-color="accent"><path fill="#000000" d="M66.755 10.115H33.937c-7.98 0-14.451 6.472-14.451 14.454V75.75c0 7.979 5.267 14.451 13.246 14.451h34.023c7.982 0 14.454-6.472 14.454-14.451V24.569C81.209 16.587 74.737 10.115 66.755 10.115zM74.583 72.855c0 6.597-4.146 10.128-10.746 10.128H36.161c-6.6 0-9.75-3.531-9.75-10.128V28.082c0-9.814 4.149-10.749 10.748-10.749h26.678c6.6 0 10.746 2.941 10.746 9.542V72.855z" data-fill-palette-color="accent"></path><path fill="#000000" d="M42.065 48.349c0-2.241-1.817-4.062-4.065-4.062-2.243 0-4.063 1.821-4.063 4.062 0 2.248 1.821 4.065 4.063 4.065C40.248 52.414 42.065 50.597 42.065 48.349z" data-fill-palette-color="accent"></path><path fill="#000000" d="M53.959 48.349c0-2.241-1.82-4.062-4.064-4.062-2.246 0-4.065 1.821-4.065 4.062 0 2.248 1.819 4.065 4.065 4.065C52.139 52.414 53.959 50.597 53.959 48.349z" data-fill-palette-color="accent"></path><path fill="#000000" d="M66.305 48.349c0-2.241-1.82-4.062-4.067-4.062-2.242 0-4.062 1.821-4.062 4.062 0 2.248 1.82 4.065 4.062 4.065C64.484 52.414 66.305 50.597 66.305 48.349z" data-fill-palette-color="accent"></path><path fill="#000000" d="M42.065 60.242c0-2.241-1.817-4.064-4.065-4.064-2.243 0-4.063 1.823-4.063 4.064 0 2.25 1.821 4.068 4.063 4.068C40.248 64.311 42.065 62.492 42.065 60.242z" data-fill-palette-color="accent"></path><path fill="#000000" d="M53.959 60.242c0-2.241-1.82-4.064-4.064-4.064-2.246 0-4.065 1.823-4.065 4.064 0 2.25 1.819 4.068 4.065 4.068C52.139 64.311 53.959 62.492 53.959 60.242z" data-fill-palette-color="accent"></path><path fill="#000000" d="M66.305 60.242c0-2.241-1.82-4.064-4.067-4.064-2.242 0-4.062 1.823-4.062 4.064 0 2.25 1.82 4.068 4.062 4.068C64.484 64.311 66.305 62.492 66.305 60.242z" data-fill-palette-color="accent"></path><path fill="#000000" d="M42.065 71.686c0-2.244-1.817-4.068-4.065-4.068-2.243 0-4.063 1.824-4.063 4.068 0 2.247 1.821 4.064 4.063 4.064C40.248 75.75 42.065 73.933 42.065 71.686z" data-fill-palette-color="accent"></path><circle fill="#000000" cx="49.895" cy="71.686" r="4.064" data-fill-palette-color="accent"></circle><path fill="#000000" d="M66.305 71.686c0-2.244-1.82-4.068-4.067-4.068-2.242 0-4.062 1.824-4.062 4.068 0 2.247 1.82 4.064 4.062 4.064C64.484 75.75 66.305 73.933 66.305 71.686z" data-fill-palette-color="accent"></path><path fill="#000000" d="M70.971 28.857c0 3.368-2.729 6.098-6.098 6.098H35.517c-3.365 0-6.096-2.729-6.096-6.098l0 0c0-3.368 2.731-6.095 6.096-6.095h29.356C68.241 22.763 70.971 25.489 70.971 28.857L70.971 28.857z" data-fill-palette-color="accent"></path></g></svg></g></svg></g><g></g></svg></g></svg></g></svg></g><defs></defs></svg><rect width="320" height="360" fill="none" stroke="none" visibility="hidden"></rect></g></svg>